PathFileType	4	(X/Y/Z)	C:\Users\Basilio\Documents\Thesis Gigler\squatting_fais\c3dfiles\054\SLS_back_pre1\markers_experimental.trc
DataRate	CameraRate	NumFrames	NumMarkers	Units	OrigDataRate	OrigDataStartFrame	OrigNumFrames
200.000000	200.000000	4	61	mm	200.000000	651	1738
Frame#	Time	FHD			LBHD			RBHD			C7			T10			CLAV			LSHO			LUUPA			LMUPA			LDUPA			LLEP			LMEP			LRAD			LUL			LRFIN			RSHO			RUPA1			RMUPA			RDUPA			RLEP			RMEP			RRAD			RUL			RUFIN			LASI			RASI			USACR			LSACR			RSACR			LTHI1			LTHI2			LTHI3			LTHI4			LLFC			LMFC			LTIB1			LTIB2			LTIB3			LTIB4			LLMAL			LMMAL			LHEE			LMT1			LMT2			LMT5			RTHI			RTHI2			RTHI3			RTHI4			RLFC			RMFC			RTIB1			RTIB2			RTIB3			RTIB4			RLMAL			RMMAL			RHEE			RMT1			RMT2			RMT5			
		X1	Y1	Z1	X2	Y2	Z2	X3	Y3	Z3	X4	Y4	Z4	X5	Y5	Z5	X6	Y6	Z6	X7	Y7	Z7	X8	Y8	Z8	X9	Y9	Z9	X10	Y10	Z10	X11	Y11	Z11	X12	Y12	Z12	X13	Y13	Z13	X14	Y14	Z14	X15	Y15	Z15	X16	Y16	Z16	X17	Y17	Z17	X18	Y18	Z18	X19	Y19	Z19	X20	Y20	Z20	X21	Y21	Z21	X22	Y22	Z22	X23	Y23	Z23	X24	Y24	Z24	X25	Y25	Z25	X26	Y26	Z26	X27	Y27	Z27	X28	Y28	Z28	X29	Y29	Z29	X30	Y30	Z30	X31	Y31	Z31	X32	Y32	Z32	X33	Y33	Z33	X34	Y34	Z34	X35	Y35	Z35	X36	Y36	Z36	X37	Y37	Z37	X38	Y38	Z38	X39	Y39	Z39	X40	Y40	Z40	X41	Y41	Z41	X42	Y42	Z42	X43	Y43	Z43	X44	Y44	Z44	X45	Y45	Z45	X46	Y46	Z46	X47	Y47	Z47	X48	Y48	Z48	X49	Y49	Z49	X50	Y50	Z50	X51	Y51	Z51	X52	Y52	Z52	X53	Y53	Z53	X54	Y54	Z54	X55	Y55	Z55	X56	Y56	Z56	X57	Y57	Z57	X58	Y58	Z58	X59	Y59	Z59	X60	Y60	Z60	X61	Y61	Z61	

652	3.255	-187.614501953125	1790.422241210938	-1065.130126953125	-348.2257690429688	1730.8974609375	-1132.48779296875	-362.8564453125001	1731.25	-992.6766357421877	-385.0994873046876	1556.620361328125	-1046.74365234375	-399.926971435547	1229.44921875	-1045.356567382813	-237.2520141601563	1508.710205078125	-1057.173950195313	-330.2280273437501	1549.354125976563	-1203.880126953125	-177.9144592285157	1442.64306640625	-1329.244140625	-147.3721313476563	1479.33251953125	-1316.48681640625	-109.5164108276367	1438.91552734375	-1340.420654296875	-50.78915405273439	1446.39306640625	-1338.067260742188	-44.93770217895509	1381.600708007813	-1293.3046875	197.8739624023438	1493.249633789063	-1245.72216796875	220.2870330810547	1465.010986328125	-1315.000244140625	289.0534057617188	1521.99267578125	-1258.548217773438	-304.3682861328126	1555.7529296875	-905.359558105469	-137.0523681640625	1451.13427734375	-790.0660400390627	-104.6182479858399	1483.923217773438	-803.9009399414065	-67.82540130615236	1438.206665039063	-784.920349121094	-23.91976928710938	1436.053955078125	-791.0798950195315	-28.42459678649903	1379.763427734375	-841.6644287109377	231.7631072998047	1497.583862304688	-907.1807250976565	241.0896148681641	1461.956787109375	-835.0327758789065	307.0243835449219	1528.610961914063	-897.4414062500002	-209.0102844238282	1052.804565429688	-1155.27978515625	-228.654037475586	1054.310791015625	-903.3789672851565	-401.8005676269532	1147.293701171875	-1043.937622070313	-407.5177307128907	1116.092407226563	-1073.110961914063	-409.9695739746095	1114.1640625	-1016.203063964844	-285.6218261718751	809.4442138671877	-1228.162353515625	-257.1593627929688	730.4828491210939	-1213.82373046875	-210.4852600097657	734.9790039062501	-1202.003662109375	-288.4243774414063	681.0004882812501	-1195.279663085938	-295.9896545410157	526.1793212890626	-1157.541870117188	-278.8505554199219	537.9597167968751	-1018.455993652344	-267.5713500976563	367.1603088378907	-1085.161254882813	-315.4656677246094	316.3135375976563	-1137.963134765625	-278.0197448730469	314.8701782226563	-1111.699951171875	-291.5791320800782	243.5631866455079	-1068.604125976563	-357.9971618652344	110.0771255493164	-1094.737670898438	-327.3438415527344	134.4851379394532	-1004.833618164063	-426.2964782714845	100.8855209350586	-1034.778930664063	-215.0914916992188	55.09518432617189	-1012.512145996094	-206.8231811523438	53.50332641601564	-1061.612182617188	-258.6124572753907	37.26435852050782	-1113.177734375	-322.8377990722657	753.0635375976564	-821.589782714844	-283.8069458007813	699.7708740234376	-811.2960205078127	-250.8102416992188	699.9064941406251	-812.637145996094	-308.6506652832032	620.8304443359376	-827.925231933594	-329.4605102539063	567.8084716796876	-836.9573364257815	-251.9180145263672	533.1787109375001	-947.7527465820315	-390.623260498047	479.4627075195314	-869.9362792968752	-486.8079223632814	526.5808715820314	-872.2857055664065	-477.413055419922	481.4267883300782	-880.1003417968752	-508.3939208984376	454.7739562988282	-921.2719726562502	-687.4178466796876	466.8707885742189	-971.0105590820315	-629.4432983398439	431.8507080078126	-1039.95458984375	-686.5244140625001	526.6911010742189	-1037.358764648438	-701.6994018554689	305.5935058593751	-1061.080200195313	-723.7182617187501	302.2524719238282	-1015.879272460938	-763.7893676757814	351.0823669433594	-987.2891845703127	
653	3.26	-187.3940734863282	1790.422973632813	-1065.048461914063	-348.0925292968751	1731.010620117188	-1132.470825195313	-362.7814331054688	1731.321166992188	-992.6896972656252	-385.0626525878907	1556.693359375	-1046.8642578125	-400.0643310546876	1229.482055664063	-1045.660278320313	-237.1586151123047	1508.720947265625	-1057.20654296875	-330.0209350585938	1549.518920898438	-1203.9287109375	-177.6910095214844	1442.69873046875	-1329.2294921875	-147.2566833496094	1479.393676757813	-1316.471801757813	-109.3186416625977	1438.940551757813	-1340.468383789063	-50.56689453125001	1446.404296875	-1338.033813476563	-44.85274124145509	1381.58984375	-1293.196899414063	198.0518341064454	1493.092529296875	-1245.56494140625	220.3591308593751	1464.818725585938	-1314.825073242188	289.3452758789063	1521.686767578125	-1258.411499023438	-304.4666137695313	1555.775390625	-905.4570312500002	-137.2148742675782	1451.13818359375	-790.035095214844	-104.8655395507813	1483.950317382813	-803.807800292969	-67.99571228027345	1438.149780273438	-784.913269042969	-24.14033889770509	1436.056030273438	-791.0046997070315	-28.35563850402833	1379.810180664063	-841.0276489257815	231.5638580322266	1497.407592773438	-906.8231201171877	240.9811248779297	1461.846801757813	-834.7277832031252	306.9259338378907	1528.5537109375	-897.1074829101565	-209.1402587890626	1052.787841796875	-1155.393432617188	-228.7552947998047	1054.408813476563	-903.571472167969	-401.7385559082032	1147.280883789063	-1044.173217773438	-407.5068664550782	1116.141967773438	-1073.3271484375	-410.0414428710939	1114.239868164063	-1016.364135742188	-285.7069396972657	809.4432373046877	-1228.190551757813	-257.3916320800782	730.4081420898439	-1213.88134765625	-210.6309204101563	734.9414672851564	-1202.030395507813	-288.7203674316407	681.0142211914064	-1195.2578125	-296.1319274902344	526.2441406250001	-1157.690673828125	-278.9783020019532	537.9721679687501	-1018.42578125	-267.8213195800782	367.2377014160157	-1085.035400390625	-315.6155395507813	316.2895812988282	-1137.912475585938	-278.1499328613282	314.8850708007813	-1111.63427734375	-291.6253967285157	243.5884857177735	-1068.53857421875	-358.0702209472657	110.0657424926758	-1094.693359375	-327.3339538574219	134.4743957519532	-1004.797729492188	-426.3067016601564	100.8936920166016	-1034.765869140625	-215.1007080078126	55.07292556762697	-1012.491943359375	-207.2122650146485	53.56233215332033	-1061.858642578125	-258.5774536132813	37.31744384765626	-1113.173095703125	-322.5901489257813	753.3120727539064	-821.2785644531252	-283.5523071289063	700.0762939453126	-810.9124145507815	-250.5688934326172	700.4017944335939	-812.161071777344	-308.3089294433594	621.0245361328126	-827.3779907226565	-328.8419494628907	568.0821533203126	-836.4873046875002	-251.1878509521485	533.4241333007814	-947.2170410156252	-389.8000793457032	479.7227478027345	-869.1781005859377	-486.0419006347657	526.7540283203126	-871.619323730469	-476.6820068359376	481.5503540039064	-879.7283935546877	-507.8155822753907	454.8616943359376	-920.605163574219	-686.8717651367189	466.7930908203126	-970.6085205078127	-628.5130004882814	431.9232482910157	-1039.5537109375	-685.9385375976564	526.6585083007814	-1036.996215820313	-700.5241088867189	305.3818969726563	-1060.668334960938	-722.5943603515626	302.0780944824219	-1016.015991210938	-762.8748168945314	350.8724670410157	-987.113708496094	
654	3.265	-187.1496124267578	1790.395874023438	-1064.896606445313	-347.8340454101563	1731.164794921875	-1132.50537109375	-362.7318115234376	1731.358764648438	-992.733581542969	-385.0044250488282	1556.76123046875	-1047.008422851563	-400.1946716308595	1229.567260742188	-1045.908081054688	-237.2378082275391	1508.817016601563	-1057.245727539063	-329.8682556152344	1549.640869140625	-1203.9892578125	-177.5469818115235	1442.74755859375	-1329.317260742188	-147.0753936767578	1479.413940429688	-1316.527221679688	-109.1145706176758	1438.97802734375	-1340.434936523438	-50.07063674926759	1446.243408203125	-1337.865966796875	-44.79763793945313	1381.602416992188	-1293.123413085938	198.2967376708985	1492.921142578125	-1245.4384765625	220.5393829345704	1464.647094726563	-1314.749267578125	289.5653076171876	1521.425048828125	-1258.277221679688	-304.5702514648438	1555.823852539063	-905.507995605469	-137.5196685791016	1451.12939453125	-789.9635009765627	-105.0406036376953	1483.875244140625	-803.7776489257815	-68.32549285888673	1438.080200195313	-784.7811279296877	-24.24543571472169	1436.057373046875	-790.9766845703127	-28.49542617797852	1379.705688476563	-840.990173339844	231.4142608642579	1497.214111328125	-906.471130371094	240.7690734863282	1461.721801757813	-834.448913574219	306.8374023437501	1528.442749023438	-896.7996826171877	-209.2757568359376	1052.809936523438	-1155.545532226563	-228.8199768066407	1054.511352539063	-903.706970214844	-401.9168090820314	1147.309448242188	-1044.41943359375	-407.6383666992189	1116.204956054688	-1073.462646484375	-410.1387939453126	1114.340209960938	-1016.485046386719	-286.0003051757813	809.2202758789065	-1228.2158203125	-257.5576477050782	730.4100341796876	-1213.903076171875	-210.8359069824219	734.8788452148439	-1202.075805664063	-289.0056762695313	680.9774169921876	-1195.213012695313	-296.3284606933594	526.2365722656251	-1157.552856445313	-279.3677978515626	538.0344848632814	-1018.44921875	-268.1023559570313	367.1808166503907	-1084.862670898438	-315.6844787597657	316.3031921386719	-1137.849853515625	-278.4002685546876	314.8593750000001	-1111.554443359375	-291.6478576660157	243.6522979736329	-1068.487670898438	-358.0962524414063	110.0981216430664	-1094.63671875	-327.3536682128907	134.4569091796875	-1004.763366699219	-426.2953186035157	100.878288269043	-1034.714721679688	-215.1193542480469	55.06907272338869	-1012.440856933594	-207.2288970947266	53.66630935668947	-1061.703979492188	-258.6804504394532	37.39452743530274	-1113.112670898438	-322.3756103515626	753.6174316406251	-821.0026855468752	-283.1661682128907	700.3481445312501	-810.607849121094	-250.2024841308594	700.6916503906251	-811.7185058593752	-307.8868103027344	621.2670898437501	-826.8690185546877	-328.3955383300782	568.3913574218751	-835.9023437500002	-250.5910186767579	533.6204833984376	-946.6240844726565	-389.0327453613282	479.8607788085939	-868.7257080078127	-485.2181701660157	526.7964477539064	-871.3286743164065	-475.8579711914064	481.668182373047	-879.274841308594	-506.8601379394532	454.8970336914064	-920.4793090820315	-686.2057495117189	466.7229614257814	-970.340759277344	-627.4785766601564	432.032440185547	-1039.428955078125	-685.2052612304689	526.5601806640626	-1036.737548828125	-699.7310791015626	305.1780090332032	-1060.4169921875	-721.6574707031251	301.8742370605469	-1015.412475585938	-762.0007324218751	350.7427368164063	-986.6561279296877	
655	3.27	-186.9578247070313	1790.45166015625	-1064.809814453125	-347.6821899414063	1731.297119140625	-1132.476684570313	-362.7460327148438	1731.429443359375	-992.7935791015627	-385.018280029297	1556.835571289063	-1047.093017578125	-400.3146057128907	1229.66455078125	-1046.091064453125	-237.2342834472657	1508.87646484375	-1057.26025390625	-329.7649841308594	1549.769653320313	-1204.088500976563	-177.4857177734375	1442.690185546875	-1329.385375976563	-146.9259033203125	1479.442016601563	-1316.540161132813	-108.8901901245117	1439.013549804688	-1340.459228515625	-50.31777572631837	1446.449096679688	-1337.946044921875	-44.72444152832032	1381.575927734375	-1293.028686523438	198.410629272461	1492.746704101563	-1245.39453125	221.5801086425782	1464.283813476563	-1314.768188476563	289.7374572753907	1521.20849609375	-1258.084350585938	-304.6473693847657	1555.854736328125	-905.5894165039065	-137.9574890136719	1451.130981445313	-789.8303833007815	-105.2704391479492	1483.825561523438	-803.6878051757815	-68.50195312500001	1438.017456054688	-784.681091308594	-24.51788330078126	1435.834716796875	-790.912292480469	-28.88245010375977	1379.6083984375	-841.1618652343752	231.2466735839844	1497.112670898438	-906.1900024414065	240.454086303711	1461.6064453125	-834.1810302734377	306.7395019531251	1528.372924804688	-896.5400390625002	-209.3726806640626	1052.815307617188	-1155.650390625	-228.9426727294922	1054.640625	-903.815612792969	-402.007781982422	1147.364868164063	-1044.665283203125	-407.7473144531251	1116.25732421875	-1073.651000976563	-410.1213684082032	1114.449951171875	-1016.634826660156	-286.3020324707032	809.238220214844	-1228.206298828125	-257.7823181152344	730.3692626953126	-1213.955322265625	-211.0058898925782	734.8529663085939	-1202.032470703125	-289.1785888671876	680.9555664062501	-1195.177001953125	-296.5205688476563	526.2231445312501	-1157.491088867188	-279.3963012695313	538.0507202148439	-1018.302368164063	-268.1775207519532	367.2262878417969	-1084.858764648438	-315.7657775878907	316.2948608398438	-1137.79248046875	-278.3819885253907	314.8669128417969	-1111.51611328125	-291.7255554199219	243.7329254150391	-1068.406127929688	-358.0942077636719	110.0958099365235	-1094.613891601563	-327.3702392578126	134.4473724365235	-1004.71240234375	-426.2889404296876	100.8577270507813	-1034.712524414063	-215.0966186523438	55.06394577026369	-1012.410339355469	-207.2472686767579	53.66973876953126	-1061.715576171875	-258.6702880859376	37.4268913269043	-1113.091674804688	-322.2624206542969	753.8979492187501	-820.7819824218752	-282.7742614746094	700.6058959960939	-810.1835937500002	-249.811752319336	701.1823120117189	-811.4224853515627	-307.1672363281251	621.4823608398439	-826.5156860351565	-327.8476562500001	568.5516357421876	-835.5200195312502	-251.4656066894532	533.6653442382814	-945.5654907226565	-388.5723571777345	479.9641113281251	-868.4512329101565	-484.7011718750001	526.9192504882814	-870.8921508789065	-475.1191406250001	481.8341064453126	-878.7410888671877	-506.3262939453126	455.0027465820314	-919.837341308594	-685.2282714843751	466.6744995117189	-969.870300292969	-626.5568847656251	432.0356750488282	-1039.049682617188	-684.5314941406251	526.3727416992189	-1036.281494140625	-698.5595703125001	304.9625549316407	-1059.992797851563	-720.9155883789064	301.8729553222657	-1014.636291503906	-761.1342163085939	350.4384765625001	-986.1572875976565	
